<svg width="100" height="100" viewBox="0 0 100 100" fill="none" xmlns="http://www.w3.org/2000/svg">
<g id="figma">
<g id="figma_2">
<path id="Vector" d="M33.3334 100C42.5334 100 50.0001 92.5334 50.0001 83.3334V66.6667H33.3334C24.1334 66.6667 16.6667 74.1334 16.6667 83.3334C16.6667 92.5334 24.1334 100 33.3334 100Z" fill="black"/>
<path id="Vector_2" d="M16.6667 49.9999C16.6667 40.7999 24.1334 33.3333 33.3334 33.3333H50.0001V66.6665H33.3334C24.1334 66.6665 16.6667 59.1999 16.6667 49.9999Z" fill="black"/>
<path id="Vector_3" d="M17.1667 16.6667C17.1667 7.74281 24.4096 0.5 33.3334 0.5H49.5001V32.8333H33.3334C24.4096 32.8333 17.1667 25.5905 17.1667 16.6667Z" fill="black" stroke="black"/>
<path id="Vector_4" d="M50 0H66.6667C75.8667 0 83.3334 7.46666 83.3334 16.6667C83.3334 25.8667 75.8667 33.3333 66.6667 33.3333H50V0Z" fill="black"/>
<path id="Vector_5" d="M83.3334 49.9999C83.3334 59.1999 75.8667 66.6665 66.6667 66.6665C57.4667 66.6665 50 59.1999 50 49.9999C50 40.7999 57.4667 33.3333 66.6667 33.3333C75.8667 33.3333 83.3334 40.7999 83.3334 49.9999Z" fill="black"/>
</g>
</g>
</svg>
