<svg width="100" height="100" viewBox="0 0 100 100" fill="none" xmlns="http://www.w3.org/2000/svg">
<path d="M44.3458 3.89172C43.0875 4.17089 40.4792 5.10006 38.5708 5.98756C29.5417 10.3626 24.05 20.6542 25.4458 30.5667C26.1251 35.6674 28.4257 40.4147 32.0083 44.1084C36.7083 49.0001 42.2958 51.3251 49.2333 51.3751C56.075 51.3751 61.7083 49.0001 66.4542 44.1126C80.7917 29.1667 71.0625 4.63756 50.3958 3.61256C48.3458 3.52089 45.6458 3.61256 44.3458 3.89172ZM57.375 13.2084C61.1458 14.6042 65.5667 18.9334 66.45 22.1459C67.3375 25.4501 66.8667 29.7292 65.2417 32.7584C61.6583 39.3209 53.5083 44.1167 48.6208 42.5334C46.3875 41.7876 43.4125 38.3917 41.7792 34.8042C38.25 26.9334 37.0833 20.1376 38.7125 16.9709C41.1792 12.1792 50.025 10.4084 57.3792 13.2042L57.375 13.2084ZM17.1125 49.4167C5.28749 53.2334 -1.69168 64.4084 0.354158 76.4167C2.35416 88.3334 13.575 97.2251 25.4917 96.2917C33.9625 95.6876 41.1792 91.1251 44.9958 83.9584C47.0917 79.9584 47.8333 76.9751 47.8333 72.2292C47.8333 63.7084 43.7875 56.4001 36.4292 51.8376C31.2625 48.5792 22.8875 47.5542 17.1125 49.4209V49.4167ZM27.2625 56.9126C38.6667 58.7751 44.8542 68.3167 40.3875 77.2542C38.5708 80.8376 34.7542 84.4709 30.8458 86.3334C28.1917 87.5417 27.3542 87.7292 24.8875 87.5417C20.6042 87.2626 18.6958 85.5417 16.3667 79.7209C13.575 72.8792 12.4083 64.6876 13.8083 62.0334C15.5292 58.8209 18.4625 57.1917 23.8625 56.4917C24.1417 56.4917 25.6292 56.6792 27.2625 56.9126ZM68.2708 49.6501C54.3542 54.5376 48.1167 69.9917 54.6333 83.3042C56.4458 87.0292 60.7292 91.4042 64.55 93.4084C74.3667 98.5751 84.9833 97.0376 92.8 89.2626C105.508 76.6959 100.717 55.6084 83.725 49.6501C79.3958 48.1167 72.6 48.1167 68.2708 49.6501ZM82.5167 57.8917C87.45 59.4751 92.3833 64.0792 93.5 68.2251C94.2458 70.9709 93.825 74.9292 92.5708 77.5334C90.2875 82.2376 84.6125 86.4709 79.025 87.5876C71.4833 89.0792 67.6208 83.9126 65.9 70.1292C64.8708 61.8001 67.15 57.9834 73.8583 56.9626C76.65 56.5417 79.0667 56.7709 82.5167 57.8917Z" fill="black"/>
</svg>
